<svg width="21" height="25" xmlns="http://www.w3.org/2000/svg"><g fill="#868686" fill-rule="evenodd"><path d="M3.588 9.044v3.53a8.262 8.262 0 0 1-1.944 5.308h17.734a8.262 8.262 0 0 1-1.943-5.307V9.044c0-3.817-3.106-6.923-6.924-6.923a6.931 6.931 0 0 0-6.923 6.923zM.532 21.734H20.49v-2.387H.53zM10.511 25c1 0 1.816-.805 1.834-1.8H8.678c.018.995.833 1.8 1.833 1.8z"/><path d="M6.856 1.34L6.262 0A10.498 10.498 0 0 0 .024 9.587H1.49A9.031 9.031 0 0 1 6.856 1.34zm12.676 8.247h1.466c0-4.143-2.448-7.906-6.237-9.587l-.595 1.34a9.031 9.031 0 0 1 5.366 8.247z"/></g></svg>