<svg width="247" height="60" xmlns="http://www.w3.org/2000/svg" xmlns:xlink="http://www.w3.org/1999/xlink"><defs><path id="a" d="M.2.119h59.556v59.556H.2z"/></defs><g fill="none" fill-rule="evenodd"><mask id="b" fill="#fff"><use xlink:href="#a"/></mask><path d="M29.978.119c16.446 0 29.778 13.332 29.778 29.778 0 16.446-13.332 29.778-29.778 29.778C13.532 59.675.2 46.343.2 29.897.2 13.45 13.532.119 29.978.119" fill="#02A959" mask="url(#b)"/><path d="M30.076 3.468A26.075 26.075 0 0 1 47.939 10.5c.426.383 1.447 1.367.808 3.27l-.608 1.819-.016.031-11.481 33.982-5.745-17.005 1.841-9.188-9.575 26.108L11.56 21.292h5.445c1.501-.027 2.41.729 2.867 1.856l3.6 8.421-1.518 9.55 5.276-19.827h4.992c1.48.052 2.47.963 2.765 2.226l1.882 9.164 5.143-18.115c.691-2.217-.828-3.303-1.488-3.663a21.42 21.42 0 0 0-10.45-2.702c-11.886 0-21.525 9.64-21.525 21.527 0 11.886 9.713 21.526 21.526 21.526 10.234 0 18.709-6.924 20.945-16.371.48-2.1-1.058-3.156-1.786-3.38l-3.493-1.178h8.307c1.588.205 2.1 1.42 2.06 2.857-1.69 12.869-12.702 22.806-26.032 22.806-14.5 0-26.261-11.76-26.261-26.26 0-14.5 11.76-26.26 26.261-26.26" fill="#FEFEFE"/><path d="M47.863 21.227c.769-.289 1.546-.563 2.382-.746.429-.113.626-.168.487-.814l-.49-2.115c-.048-.23-.212-.36-.498-.215-1.103.643-1.795 2.116-1.881 3.89m7.107-.871c.206.473.377.984.502 1.524.722 3.127-.346 6.037-2.387 6.497-2.04.46-4.28-1.703-5.005-4.83a8.733 8.733 0 0 1-.219-1.589 24.763 24.763 0 0 1 7.11-1.602m-3.627-3.346c1.242.151 2.467 1.167 3.302 2.687-.795.098-1.594.178-2.388.35-.625.109-.772-.025-.904-.623l-.464-2.01c-.096-.353.083-.464.454-.404" fill="#FEFEFE" fill-rule="nonzero"/><path d="M87.553 17.972h-3.828a5.122 5.122 0 0 0-1.973-1.682 5.69 5.69 0 0 0-2.555-.607c-1.541 0-2.88.498-4.015 1.495-.592.514-1.066 1.164-1.425 1.95a5.752 5.752 0 0 0-.536 2.395c0 .717.145 1.433.431 2.15a5.73 5.73 0 0 0 1.203 1.869c1.23 1.278 2.723 1.916 4.481 1.916 1.012 0 1.99-.285 2.93-.854.941-.568 1.646-1.312 2.113-2.23h-7.236v-3.037h11.25v.373c0 2.492-.902 4.595-2.707 6.309-1.806 1.713-3.953 2.57-6.442 2.57-2.522 0-4.692-.864-6.513-2.594-1.82-1.729-2.73-3.855-2.73-6.378 0-2.54.902-4.685 2.706-6.437 1.806-1.752 3.969-2.628 6.49-2.628 1.789 0 3.467.49 5.03 1.471 1.565.982 2.672 2.298 3.326 3.95zm3.082 12.196v-17.29h4.995c1.011 0 1.855.075 2.532.223.677.148 1.326.476 1.95.98a5.306 5.306 0 0 1 1.47 1.917c.358.771.536 1.554.536 2.348 0 .654-.128 1.332-.385 2.033-.257.7-.59 1.273-1.003 1.717a5.21 5.21 0 0 1-1.4 1.075 6.488 6.488 0 0 1-1.693.596l4.668 6.401h-3.921l-4.528-6.636v6.636h-3.221zm3.221-9.065h1.727c.716 0 1.257-.058 1.622-.175.366-.117.68-.292.945-.526.53-.53.794-1.152.794-1.869 0-.825-.31-1.48-.934-1.963-.544-.374-1.198-.56-1.96-.56h-2.194v5.093zm10.55 9.065v-17.29h12.419v3.132h-9.198v3.971h9.198v3.085h-9.198v3.971h9.198v3.131h-12.419zm15.686 0v-17.29h12.418v3.132h-9.197v3.971h9.197v3.085h-9.197v3.971h9.197v3.131h-12.418zm15.686 0v-17.29h3.595l7.19 12.618V12.879h3.22v17.29l-3.563.007L139 17.599v12.57h-3.222zm40.71-12.196h-3.829a5.126 5.126 0 0 0-1.973-1.682 5.684 5.684 0 0 0-2.555-.607c-1.54 0-2.88.498-4.015 1.495-.592.514-1.066 1.164-1.424 1.95a5.729 5.729 0 0 0-.537 2.395c0 .717.144 1.433.431 2.15.289.717.69 1.339 1.204 1.869 1.228 1.278 2.722 1.916 4.481 1.916 1.011 0 1.988-.285 2.93-.854.94-.568 1.645-1.312 2.112-2.23h-7.236v-3.037h11.25v.373c0 2.492-.902 4.595-2.707 6.309-1.805 1.713-3.953 2.57-6.443 2.57-2.521 0-4.691-.864-6.512-2.594-1.82-1.729-2.73-3.855-2.73-6.378 0-2.54.902-4.685 2.707-6.437 1.805-1.752 3.968-2.628 6.49-2.628 1.788 0 3.465.49 5.029 1.471 1.565.982 2.673 2.298 3.326 3.95zm3.08 12.196v-17.29h3.222v14.16h5.275v3.13h-8.497zm17.6-17.663c2.226 0 4.128.885 5.708 2.652 1.579 1.768 2.37 3.906 2.37 6.413 0 2.492-.795 4.61-2.383 6.355-1.586 1.745-3.485 2.617-5.694 2.617-2.226 0-4.136-.868-5.732-2.604-1.594-1.738-2.392-3.86-2.392-6.368 0-2.523.786-4.664 2.358-6.425 1.572-1.76 3.493-2.64 5.766-2.64zm0 3.13c-1.462 0-2.701.57-3.712 1.707-1.01 1.137-1.516 2.515-1.516 4.134 0 1.636.51 3.034 1.53 4.195 1.019 1.16 2.25 1.74 3.699 1.74 1.4 0 2.621-.585 3.664-1.752 1.042-1.168 1.564-2.563 1.564-4.183 0-1.62-.506-2.997-1.517-4.134-1.012-1.137-2.25-1.706-3.711-1.706zm10.224 14.533v-17.29h3.64c.874 0 1.632.04 2.278.118a5.717 5.717 0 0 1 1.832.537c.7.374 1.28.92 1.74 1.635.458.717.687 1.465.687 2.244a4.05 4.05 0 0 1-.49 1.973 3.092 3.092 0 0 1-1.424 1.344c.95.296 1.678.81 2.183 1.542.506.732.758 1.604.758 2.617 0 1.728-.7 3.1-2.101 4.112-.606.452-1.36.771-2.263.957-.7.14-1.533.211-2.497.211h-4.343zm3.221-3.13h1.308c.56 0 1.05-.04 1.47-.118a3.13 3.13 0 0 0 1.19-.49c.56-.374.84-.934.84-1.682 0-.406-.092-.748-.28-1.028-.186-.28-.481-.53-.886-.748-.218-.125-.494-.21-.828-.257a7.1 7.1 0 0 0-.993-.07h-1.821v4.392zm0-7.477h1.122c.264 0 .551-.023.862-.07a2.87 2.87 0 0 0 .771-.21c.654-.296.98-.826.98-1.59 0-.357-.093-.665-.28-.922a1.947 1.947 0 0 0-.793-.619 1.63 1.63 0 0 0-.432-.104 4.479 4.479 0 0 0-.596-.036h-1.634v3.55zm9.15 10.607l7.19-17.29h2.475l7.283 17.29h-3.548l-1.868-4.486h-6.116l-1.914 4.486h-3.501zm6.583-7.57h3.688l-1.82-5.234-1.868 5.235zm12.092 7.57v-17.29h3.22v14.16h5.276v3.13h-8.496zM72.144 40.7c-.17-.504-.339-.816-.508-.93a.692.692 0 0 0-.29-.09 1.503 1.503 0 0 0-.263-.025c-.148 0-.223-.041-.223-.122 0-.077.1-.115.303-.115.289 0 .632.004 1.03.013.062.008.129.013.203.013l.554.012c.01-.007.018-.012.028-.012h.126c.065 0 .123-.005.176-.013.363-.01.704-.013 1.03-.013.193 0 .29.038.29.115 0 .08-.083.122-.251.122-.166 0-.282.017-.344.05-.104.043-.157.14-.157.288 0 .068.035.218.101.447l.203.754c.06.2.175.577.354 1.128l.533 1.7c.43 1.331.726 2.241.893 2.732h.04l2.684-6.812c.123-.315.238-.472.346-.472.095 0 .228.205.406.612l2.882 6.576h.039c.055-.2.16-.555.318-1.068l1.522-4.786c.094-.29.142-.543.142-.758 0-.262-.224-.39-.67-.39-.159 0-.237-.042-.237-.123 0-.077.108-.115.325-.115.293 0 .61.004.954.013a.903.903 0 0 0 .161.013l.474.012a.187.187 0 0 1 .069-.012l.932-.026c.162 0 .242.034.242.102 0 .09-.062.135-.188.135-.195 0-.356.023-.487.063-.148.052-.282.205-.4.46a5.378 5.378 0 0 0-.183.414l-.196.512-.607 1.634c-.22.6-.473 1.31-.756 2.131l-1.402 4.003c-.138.41-.275.615-.406.615-.1 0-.24-.217-.424-.645l-2.882-6.55h-.027l-1.217 3.05-.846 2.024c-.29.671-.501 1.147-.643 1.423-.228.464-.395.698-.493.698-.095 0-.2-.164-.317-.487l-2.943-8.3zm13.944 1.738c0-.29-.005-.517-.013-.682-.018-.313-.194-.512-.526-.601l-.204-.025a2.996 2.996 0 0 0-.277-.013c-.14 0-.21-.04-.21-.116 0-.07.093-.108.277-.108l1.426.026h3.66c.055 0 .108-.005.161-.013l.346-.05c.019 0 .05-.009.101-.026a.294.294 0 0 1 .095-.026c.054 0 .081.034.081.102l-.027.135a.14.14 0 0 1-.014.063 4.343 4.343 0 0 0-.053.523l-.053.575a.543.543 0 0 1-.015.16l-.014.05a.16.16 0 0 1-.026.052c-.024.05-.056.076-.103.076-.061 0-.095-.046-.095-.139 0-.065-.004-.127-.013-.185a1.179 1.179 0 0 0-.067-.226.643.643 0 0 0-.21-.26c-.122-.068-.321-.117-.595-.14a2.67 2.67 0 0 0-.345-.013l-.595-.026-.974-.014c-.053 0-.081.035-.081.103v2.745c0 .081.028.12.08.12h1.07c.266 0 .482-.006.648-.017.213 0 .353-.004.42-.013.303-.026.497-.08.582-.166l.108-.109c.035-.025.063-.039.082-.039.066 0 .101.042.101.122l-.143 1.238-.012.313a.854.854 0 0 1-.013.16c-.028.059-.065.09-.108.09-.077 0-.116-.031-.116-.09l-.042-.404c-.081-.255-.304-.398-.677-.433a2.87 2.87 0 0 0-.343-.013l-.582-.024-.988-.013c-.044 0-.067.037-.067.113v2.536c.01.378.134.628.371.745.213.124.64.186 1.28.186.221 0 .415-.01.581-.024a1.75 1.75 0 0 0 .568-.122c.265-.111.439-.385.522-.824.03-.11.078-.165.14-.165.047 0 .076.03.095.09.01.03.014.09.014.17 0 .46-.055.868-.161 1.226-.06.191-.277.288-.658.288-.892 0-1.64-.014-2.237-.038l-1.664-.026-.446.013c-.387.018-.669.026-.847.026-.152 0-.228-.039-.228-.116 0-.08.062-.122.188-.122.176 0 .322-.012.433-.036.193-.044.313-.24.36-.588.025-.21.043-.537.052-.983v-5.018zm13.68-.861l-1.812.036c-.63.01-1.023.123-1.176.34-.06.073-.105.147-.143.223a.295.295 0 0 0-.04.09l-.027.07c-.027.093-.076.141-.143.141-.072 0-.108-.063-.108-.185 0-.044.014-.136.041-.274.019-.12.045-.262.081-.428l.143-.645c.025-.137.072-.205.135-.205l.339.09c.061.017.124.03.19.037.322.035.728.052 1.216.052h4.95c.171 0 .335-.005.492-.013a4.53 4.53 0 0 0 .332-.04l.338-.05c.064 0 .094.079.094.236l-.025 1.35c-.018.116-.058.177-.116.177-.08 0-.126-.074-.136-.218l-.012-.122c-.017-.174-.124-.311-.318-.414-.25-.141-.623-.216-1.124-.224l-1.535-.024v4.492c0 .568.005 1.03.013 1.387.01.438.029.769.056.995.044.35.202.54.467.576.166.024.375.036.627.036.128 0 .19.042.19.122 0 .077-.076.116-.23.116l-2.259-.039a1.5 1.5 0 0 1-.21.013l-1.094.026c-.159 0-.237-.039-.237-.116 0-.08.066-.122.196-.122.194 0 .339-.012.434-.036.194-.044.311-.24.357-.588.028-.21.046-.537.054-.983v-5.879zm7.141.86a12.1 12.1 0 0 0-.014-.681c-.016-.313-.194-.512-.526-.601l-.203-.025a3.004 3.004 0 0 0-.277-.013c-.14 0-.21-.04-.21-.116 0-.07.092-.108.277-.108l2.078.026c.119-.01.304-.013.553-.013l.926-.013c.473 0 .875.028 1.206.082.444.077.813.208 1.107.39.213.14.397.328.554.563.204.305.304.63.304.97 0 .781-.562 1.6-1.689 2.457l.406.454c.139.173.263.32.372.432l.697.799c.478.542.876.963 1.203 1.266.293.278.57.476.83.592.091.043.182.076.277.102l.347.063h.136c.102 0 .154.042.154.122 0 .077-.078.116-.237.116h-1.164c-.581 0-1.024-.076-1.332-.224-.247-.111-.502-.308-.77-.589-.215-.215-.51-.564-.884-1.045a5.875 5.875 0 0 1-.367-.467l-.608-.824a1.813 1.813 0 0 0-.177-.221.301.301 0 0 0-.222-.083l-1.096-.027c-.063 0-.095.033-.095.097v.151c0 .568.004 1.033.014 1.4.009.428.027.75.053.97.046.356.203.552.475.588.18.024.38.036.594.036.1 0 .15.042.15.122 0 .077-.083.116-.251.116l-2.157-.039a1.073 1.073 0 0 1-.182.013l-1.055.026c-.155 0-.231-.039-.231-.116 0-.08.063-.122.19-.122.175 0 .32-.012.433-.036.194-.044.312-.24.358-.588.028-.21.044-.537.053-.983v-5.018zm1.556 2.534c0 .098.036.164.108.199.231.067.538.102.927.102.396 0 .682-.058.858-.178a1.79 1.79 0 0 0 .542-.576c.167-.296.25-.656.25-1.071 0-.698-.215-1.226-.649-1.584a1.914 1.914 0 0 0-1.203-.395c-.352 0-.593.015-.725.044a.151.151 0 0 0-.108.154v3.305zm7.195-2.533c0-.29-.005-.517-.014-.682-.018-.313-.194-.512-.525-.601l-.205-.025a2.996 2.996 0 0 0-.276-.013c-.141 0-.21-.04-.21-.116 0-.07.092-.108.277-.108l1.426.026h3.659c.056 0 .108-.005.161-.013l.347-.05c.018 0 .05-.009.1-.026a.294.294 0 0 1 .096-.026c.053 0 .08.034.08.102l-.027.135a.133.133 0 0 1-.014.063 4.46 4.46 0 0 0-.053.523l-.053.575a.562.562 0 0 1-.014.16l-.014.05a.142.142 0 0 1-.027.052c-.024.05-.056.076-.103.076-.061 0-.094-.046-.094-.139 0-.065-.005-.127-.014-.185a1.217 1.217 0 0 0-.066-.226.638.638 0 0 0-.211-.26c-.122-.068-.32-.117-.595-.14a2.665 2.665 0 0 0-.344-.013l-.595-.026-.974-.014c-.053 0-.081.035-.081.103v2.745c0 .081.028.12.08.12h1.07c.265 0 .481-.006.647-.017.213 0 .354-.004.42-.013.302-.026.497-.08.583-.166l.108-.109c.035-.025.062-.039.08-.039.068 0 .102.042.102.122l-.143 1.238-.012.313a.733.733 0 0 1-.014.16c-.027.059-.064.09-.108.09-.076 0-.115-.031-.115-.09l-.042-.404c-.08-.255-.304-.398-.676-.433a2.879 2.879 0 0 0-.345-.013l-.58-.024-.988-.013c-.045 0-.067.037-.067.113v2.536c.01.378.133.628.37.745.213.124.64.186 1.28.186.221 0 .415-.01.582-.024.238-.018.426-.06.568-.122.264-.111.438-.385.521-.824.03-.11.078-.165.14-.165.048 0 .077.03.096.09a.71.71 0 0 1 .014.17c0 .46-.056.868-.162 1.226-.06.191-.277.288-.659.288-.89 0-1.638-.014-2.236-.038l-1.664-.026-.446.013c-.387.018-.669.026-.846.026-.153 0-.23-.039-.23-.116 0-.08.063-.122.19-.122.175 0 .321-.012.432-.036.194-.044.314-.24.36-.588.025-.21.044-.537.053-.983v-5.018zm9.25 4.066c-.054 0-.088.026-.107.078l-.649 1.492c-.122.26-.182.486-.182.678 0 .207.162.311.485.311h.177c.12 0 .183.042.183.122 0 .077-.067.116-.196.116h-.332l-.702-.039-.833.013c-.343.018-.643.026-.898.026-.15 0-.225-.039-.225-.116 0-.08.045-.122.134-.122l.367-.012c.404-.06.742-.384 1.007-.977l3.185-6.996c.132-.298.252-.446.364-.446.119 0 .239.119.361.357l2.324 5.15c.344.759.603 1.326.778 1.7.213.443.416.759.61.95a.82.82 0 0 0 .427.238c.185.024.337.036.46.036.108 0 .16.042.16.122 0 .042-.032.072-.094.09a2.124 2.124 0 0 1-.432.026l-2.42-.026-.07-.013a.417.417 0 0 1-.113-.014c-.064-.008-.095-.03-.095-.063 0-.071.05-.112.155-.122a.156.156 0 0 0 .108-.075c.028-.05.028-.11 0-.173l-.939-2.233c-.018-.052-.062-.078-.13-.078h-2.867zm2.605-.613c.058 0 .079-.024.06-.07l-1.163-2.86c0-.009-.006-.015-.014-.024-.013-.027-.023-.04-.032-.04-.019 0-.033.013-.042.04-.009.009-.014.015-.014.023l-1.188 2.849c-.028.054-.015.082.039.082h2.354zm6.931 3.557a7.17 7.17 0 0 1-1.053-.07 3.56 3.56 0 0 1-.929-.218c-.157-.064-.235-.193-.235-.384 0-.25.01-.551.025-.9.01-.06.013-.12.013-.185l.029-.388c0-.191.05-.288.154-.288a.12.12 0 0 1 .108.064c.01.026.014.062.014.115 0 .174.04.368.116.58.118.383.378.67.785.863a2.66 2.66 0 0 0 1.15.235c1.126 0 1.689-.472 1.689-1.416 0-.286-.064-.532-.197-.741-.179-.282-.514-.556-1.006-.824l-.704-.396c-.704-.382-1.202-.778-1.5-1.186a2.236 2.236 0 0 1-.413-1.335c0-.663.3-1.207.9-1.635.582-.398 1.307-.599 2.177-.599.355 0 .701.022 1.034.064.27.026.503.063.696.115.11.03.163.078.163.146l-.04 1.336c0 .233-.053.35-.157.35-.08 0-.119-.067-.119-.198a.525.525 0 0 0-.015-.115 1.472 1.472 0 0 0-.04-.185 1.26 1.26 0 0 0-.264-.428 1.461 1.461 0 0 0-.446-.344 2.157 2.157 0 0 0-.914-.179c-.46 0-.847.105-1.163.311-.333.22-.501.51-.501.877 0 .273.079.508.238.708.185.233.535.485 1.054.758l.501.258c.767.402 1.319.83 1.656 1.28.297.41.447.881.447 1.413 0 .848-.406 1.54-1.218 2.081-.262.174-.594.3-1 .376a5.72 5.72 0 0 1-1.035.084zm5.626-5.337c0-1.455-.005-2.242-.013-2.355-.019-.313-.194-.512-.529-.601l-.201-.025a2.67 2.67 0 0 0-.266-.013c-.138 0-.21-.04-.21-.116 0-.07.09-.108.266-.108l2.13.026 1.263-.026c.177 0 .266.037.266.108 0 .077-.068.116-.197.116-.085 0-.206.013-.36.038-.27.043-.417.244-.445.6l-.028.683v3.231c0 .764.08 1.362.238 1.787.139.366.37.67.69.906.238.183.51.31.817.377.123.024.247.042.372.05.069.009.13.014.182.014h.17c.295 0 .569-.042.825-.13.316-.095.585-.25.805-.457.308-.27.509-.651.608-1.15.04-.21.071-.454.09-.735.007-.2.011-.475.011-.823V44.11c0-.749-.004-1.307-.011-1.673l-.014-.682c-.023-.313-.194-.512-.514-.601l-.211-.025a2.182 2.182 0 0 0-.235-.013c-.137 0-.203-.04-.203-.116 0-.07.08-.108.242-.108l1.32.026 1.56-.026c.169 0 .252.037.252.108 0 .077-.069.116-.203.116a2.56 2.56 0 0 0-.365.038c-.267.043-.413.244-.44.6l-.014.683c-.01.366-.015.924-.015 1.673v1.187c0 .358-.011.667-.039.93a5.228 5.228 0 0 1-.157.913c-.184.648-.505 1.152-.964 1.51-.387.3-.83.517-1.321.65-.369.098-.79.147-1.257.147h-.264a3.88 3.88 0 0 1-.318-.014 5.107 5.107 0 0 1-.723-.096c-.6-.11-1.094-.326-1.481-.651a2.72 2.72 0 0 1-.79-1.059c-.212-.506-.319-1.136-.319-1.883V44.11zm11.05-1.673c0-.29-.004-.517-.014-.682-.016-.313-.193-.512-.526-.601l-.204-.025a3.012 3.012 0 0 0-.276-.013c-.14 0-.21-.04-.21-.116 0-.07.091-.108.277-.108l2.077.026c.12-.01.305-.013.554-.013l.926-.013c.473 0 .874.028 1.205.082.445.077.814.208 1.108.39.212.14.397.328.553.563.204.305.306.63.306.97 0 .781-.564 1.6-1.69 2.457l.407.454c.137.173.262.32.37.432l.698.799c.478.542.877.963 1.202 1.266.293.278.57.476.83.592.09.043.184.076.278.102l.347.063h.136c.101 0 .155.042.155.122 0 .077-.08.116-.239.116h-1.163c-.582 0-1.025-.076-1.331-.224-.248-.111-.504-.308-.772-.589-.215-.215-.51-.564-.884-1.045a6.122 6.122 0 0 1-.367-.467l-.607-.824a1.853 1.853 0 0 0-.178-.221.301.301 0 0 0-.221-.083l-1.097-.027c-.062 0-.095.033-.095.097v.151c0 .568.005 1.033.015 1.4.009.428.027.75.053.97.046.356.202.552.476.588.18.024.378.036.593.036.098 0 .15.042.15.122 0 .077-.084.116-.252.116l-2.156-.039a1.073 1.073 0 0 1-.182.013l-1.056.026c-.155 0-.23-.039-.23-.116 0-.08.062-.122.189-.122.176 0 .322-.012.434-.036.194-.044.311-.24.357-.588a9.83 9.83 0 0 0 .054-.983v-5.018zm1.555 2.533c0 .098.038.164.109.199.23.067.538.102.926.102.397 0 .684-.058.858-.178.222-.149.402-.34.543-.576.167-.296.25-.656.25-1.071 0-.698-.215-1.226-.65-1.584a1.914 1.914 0 0 0-1.202-.395c-.353 0-.594.015-.725.044a.153.153 0 0 0-.109.154v3.305zm7.196-2.533c0-.29-.005-.517-.014-.682-.019-.313-.194-.512-.527-.601l-.202-.025a3.034 3.034 0 0 0-.278-.013c-.14 0-.21-.04-.21-.116 0-.07.093-.108.277-.108l1.426.026h3.66c.054 0 .109-.005.161-.013l.346-.05a.376.376 0 0 0 .101-.026.292.292 0 0 1 .096-.026c.053 0 .08.034.08.102l-.027.135a.147.147 0 0 1-.014.063 4.042 4.042 0 0 0-.053.523l-.053.575a.543.543 0 0 1-.014.16l-.015.05a.128.128 0 0 1-.026.052c-.023.05-.056.076-.103.076-.062 0-.094-.046-.094-.139a1.07 1.07 0 0 0-.014-.185 1.179 1.179 0 0 0-.067-.226.641.641 0 0 0-.21-.26c-.122-.068-.32-.117-.595-.14a2.656 2.656 0 0 0-.344-.013l-.596-.026-.975-.014c-.052 0-.08.035-.08.103v2.745c0 .081.028.12.08.12h1.07c.265 0 .482-.006.649-.017.211 0 .352-.004.419-.013.303-.026.496-.08.582-.166l.109-.109c.035-.025.062-.039.08-.039.067 0 .102.042.102.122l-.143 1.238-.012.313a.775.775 0 0 1-.013.16c-.029.059-.065.09-.109.09-.076 0-.115-.031-.115-.09l-.042-.404c-.081-.255-.304-.398-.677-.433a2.857 2.857 0 0 0-.343-.013l-.582-.024-.987-.013c-.044 0-.068.037-.068.113v2.536c.01.378.135.628.371.745.214.124.64.186 1.28.186.221 0 .415-.01.581-.024a1.76 1.76 0 0 0 .568-.122c.266-.111.44-.385.522-.824.03-.11.078-.165.14-.165.047 0 .076.03.095.09a.69.69 0 0 1 .014.17c0 .46-.055.868-.161 1.226-.061.191-.277.288-.658.288-.89 0-1.639-.014-2.236-.038l-1.665-.026-.445.013c-.389.018-.67.026-.848.026-.152 0-.228-.039-.228-.116 0-.08.062-.122.19-.122.174 0 .32-.012.43-.036.194-.044.314-.24.36-.588.027-.21.044-.537.054-.983v-5.018zm13.383 3.976c0-.272-.025-.498-.077-.682a3.023 3.023 0 0 0-.203-.485c-.014-.042-.121-.205-.316-.485-.168-.261-.38-.581-.644-.965l-1.216-1.75c-.311-.42-.575-.682-.792-.784a1.095 1.095 0 0 0-.504-.146c-.124 0-.186-.04-.186-.116 0-.07.082-.108.238-.108l1.773.026 1.136-.026c.122 0 .181.037.181.108 0 .045-.025.072-.073.09l-.205.05c-.112.026-.167.085-.167.175 0 .084.052.209.155.374l1.877 3.033c.067.115.112.19.145.225l.9-1.462c.238-.402.432-.718.578-.946l.205-.364a1.45 1.45 0 0 0 .13-.21c.117-.234.174-.43.174-.587 0-.133-.086-.216-.256-.249l-.154-.04c-.047-.017-.07-.044-.07-.089 0-.07.07-.108.204-.108l.92.026 1.575-.026c.15 0 .224.032.224.096 0 .084-.079.128-.24.128-.146 0-.321.044-.526.132-.192.086-.405.258-.636.52-.09.104-.26.333-.512.682-.222.316-.464.677-.732 1.085-.28.41-.52.776-.722 1.098a9.743 9.743 0 0 0-.4.695 1.849 1.849 0 0 0-.143.575 2.69 2.69 0 0 0-.012.262v1.608l.026.665c.032.348.199.544.5.588.186.024.39.036.61.036.14 0 .21.042.21.122 0 .077-.088.116-.265.116l-2.219-.039a1.324 1.324 0 0 1-.2.013l-1.069.026c-.178 0-.265-.039-.265-.116 0-.08.067-.122.196-.122.178 0 .318-.012.427-.036.222-.044.343-.24.371-.588.024-.201.039-.422.049-.665v-1.36zm10.77 3.034c-.847 0-1.604-.139-2.27-.41a4.293 4.293 0 0 1-1.55-1.033 4.088 4.088 0 0 1-.886-1.399 4.272 4.272 0 0 1-.277-1.512c0-.508.092-1 .277-1.482.202-.53.499-1.002.886-1.41a4.43 4.43 0 0 1 1.595-1.047c.69-.278 1.476-.415 2.355-.415 1.531 0 2.744.375 3.638 1.123.897.749 1.344 1.76 1.344 3.032 0 1.308-.457 2.385-1.373 3.232-.95.88-2.196 1.32-3.738 1.32zm.5-.606a3.2 3.2 0 0 0 .806-.103c.352-.102.656-.263.913-.486.335-.267.588-.625.764-1.072.212-.51.318-1.14.318-1.883 0-1.2-.341-2.17-1.026-2.91-.663-.708-1.501-1.062-2.51-1.062a3.69 3.69 0 0 0-1.034.142 2.77 2.77 0 0 0-.943.536 2.69 2.69 0 0 0-.694 1.046c-.188.481-.279 1.048-.279 1.7 0 1.178.33 2.146.989 2.903.671.791 1.57 1.189 2.696 1.189zm6.231-4.619c0-1.455-.006-2.242-.015-2.355-.018-.311-.193-.512-.529-.6l-.2-.025a2.639 2.639 0 0 0-.264-.013c-.139 0-.21-.04-.21-.115 0-.072.09-.11.264-.11l2.132.026 1.262-.026c.178 0 .265.038.265.11 0 .075-.067.115-.196.115a2.48 2.48 0 0 0-.36.037c-.27.043-.418.244-.445.601l-.029.681v3.232c0 .765.08 1.362.24 1.786.137.368.368.67.688.907.238.184.512.31.817.377.123.025.247.042.371.05.07.01.132.014.183.014h.171c.293 0 .568-.042.824-.129.316-.095.584-.25.806-.457.306-.271.508-.652.607-1.15.043-.21.072-.454.09-.735.007-.2.01-.476.01-.824v-1.397c0-.749-.003-1.307-.01-1.674l-.013-.681c-.024-.311-.195-.512-.516-.6l-.21-.025a2.154 2.154 0 0 0-.235-.013c-.136 0-.202-.04-.202-.115 0-.072.08-.11.241-.11l1.32.026 1.56-.026c.169 0 .253.038.253.11 0 .075-.07.115-.203.115-.086 0-.207.013-.366.037-.266.043-.412.244-.439.601l-.015.681c-.01.367-.014.925-.014 1.674v1.188c0 .358-.01.667-.038.93a5.496 5.496 0 0 1-.158.913c-.185.647-.506 1.151-.966 1.508-.387.3-.828.519-1.32.652a4.92 4.92 0 0 1-1.257.146h-.263a4.01 4.01 0 0 1-.32-.013 4.918 4.918 0 0 1-.72-.096c-.6-.111-1.094-.327-1.483-.652a2.702 2.702 0 0 1-.79-1.058c-.212-.506-.318-1.136-.318-1.884v-1.634zm11.049-1.674a12.3 12.3 0 0 0-.013-.681c-.017-.311-.195-.512-.527-.6l-.202-.025a3.062 3.062 0 0 0-.278-.013c-.142 0-.21-.04-.21-.115 0-.072.093-.11.278-.11l2.078.026c.118-.009.303-.013.552-.013l.927-.013c.472 0 .874.029 1.204.082.447.077.815.208 1.108.39.212.14.399.328.553.563.204.306.306.63.306.97 0 .782-.562 1.601-1.689 2.457l.406.454c.137.174.263.32.37.434l.7.797c.476.543.875.962 1.201 1.266.292.278.57.477.83.592.09.045.183.076.278.103l.345.063h.137c.103 0 .155.04.155.123 0 .076-.08.115-.238.115h-1.163c-.582 0-1.025-.077-1.332-.225-.246-.11-.503-.307-.772-.588a12.16 12.16 0 0 1-.882-1.046 5.774 5.774 0 0 1-.368-.467l-.608-.822a1.702 1.702 0 0 0-.178-.223.3.3 0 0 0-.22-.083l-1.096-.026c-.064 0-.096.033-.096.096v.152c0 .567.005 1.033.014 1.4.01.429.027.751.052.969.047.357.205.553.477.588.18.024.378.037.592.037.1 0 .151.04.151.123 0 .076-.083.115-.252.115l-2.156-.04a1.067 1.067 0 0 1-.182.013l-1.055.027c-.154 0-.23-.04-.23-.115 0-.082.062-.123.188-.123.176 0 .32-.013.435-.037.195-.044.311-.24.358-.588a9.75 9.75 0 0 0 .052-.984V42.55zm1.556 2.536c0 .097.037.162.109.197.232.069.537.103.925.103.398 0 .684-.059.86-.179.22-.149.4-.34.541-.575.167-.297.25-.656.25-1.072 0-.697-.216-1.224-.648-1.584a1.918 1.918 0 0 0-1.203-.395c-.353 0-.592.016-.725.045a.151.151 0 0 0-.11.154v3.306zm12.9-3.396l-1.81.037c-.63.009-1.023.122-1.176.339a1.25 1.25 0 0 0-.143.223.321.321 0 0 0-.042.09l-.025.07c-.028.093-.076.141-.143.141-.072 0-.109-.063-.109-.185 0-.044.015-.135.042-.274.018-.12.045-.262.082-.428l.144-.645c.023-.137.07-.204.132-.204l.339.09c.062.017.126.03.19.036.324.035.729.052 1.215.052h4.952c.171 0 .335-.004.492-.013a3.98 3.98 0 0 0 .332-.039l.337-.05c.065 0 .094.078.094.235l-.024 1.35c-.02.117-.057.177-.116.177-.081 0-.127-.073-.136-.217l-.012-.122c-.018-.175-.124-.312-.318-.414-.25-.142-.624-.216-1.124-.225l-1.535-.024v4.493a65 65 0 0 0 .013 1.385c.01.44.03.77.056.996.045.35.2.541.468.576.165.024.374.037.626.037.126 0 .189.04.189.123 0 .076-.074.115-.228.115l-2.26-.04a1.47 1.47 0 0 1-.21.013l-1.094.027c-.158 0-.238-.04-.238-.115 0-.082.067-.123.196-.123.195 0 .34-.013.435-.037.193-.044.311-.24.357-.588.027-.21.046-.536.053-.984V41.69zm7.15.86c0-.289-.003-.515-.014-.681-.024-.311-.165-.508-.417-.588a1.677 1.677 0 0 0-.442-.05c-.129 0-.196-.043-.196-.129 0-.063.097-.096.292-.096l1.94.026 1.259-.026c.166 0 .25.033.25.096 0 .086-.065.129-.195.129-.1 0-.22.013-.36.037-.275.043-.427.244-.46.601l-.028.681v4.406c0 .265.005.487.015.67 0 .45.015.782.048.989.044.307.206.481.48.525.166.024.373.037.62.037.132 0 .198.04.198.123 0 .076-.08.115-.237.115l-2.26-.04a1.367 1.367 0 0 1-.202.013l-1.095.027c-.158 0-.237-.04-.237-.115 0-.082.064-.123.196-.123.175 0 .318-.013.427-.037.204-.044.323-.223.365-.538a9.22 9.22 0 0 0 .052-.977V42.55zm6.088-1.505c.024-.191.103-.287.234-.287.12 0 .243.12.373.358l3.265 6.192 3.274-6.276c.098-.182.204-.274.318-.274.052 0 .109.033.16.096a.435.435 0 0 1 .117.262l1.112 6.86c.095.652.293 1.017.592 1.099.154.043.29.072.412.089.094.008.188.013.277.013.132 0 .198.038.198.11 0 .084-.106.128-.319.128-.711 0-1.551-.027-2.521-.078a.846.846 0 0 1-.291-.05c-.045-.018-.07-.047-.07-.083 0-.053.047-.09.137-.117.07-.026.09-.182.053-.472l-.677-4.807h-.039l-2.616 4.968c-.14.268-.237.439-.292.51-.066.076-.133.116-.197.116-.112 0-.274-.187-.486-.563l-1.164-2.067c-.124-.236-.205-.386-.235-.454l-.494-.984a75.896 75.896 0 0 0-.725-1.398h-.038l-.583 4.342a3.748 3.748 0 0 0-.042.522c0 .174.127.283.373.328.185.032.329.05.432.05.128 0 .19.037.19.109 0 .084-.096.128-.29.128l-1.522-.04a.696.696 0 0 1-.149.013l-.818.027c-.15 0-.224-.044-.224-.128 0-.072.064-.11.197-.11h.149l.222-.026c.15-.015.269-.116.36-.299.058-.133.104-.316.141-.548l1.206-7.259zm11.574 1.505c0-.289-.004-.515-.012-.681-.02-.311-.195-.512-.526-.6l-.205-.025a2.971 2.971 0 0 0-.277-.013c-.14 0-.21-.04-.21-.115 0-.072.093-.11.277-.11l1.427.026h3.658a.932.932 0 0 0 .162-.013l.348-.05a.428.428 0 0 0 .101-.026.325.325 0 0 1 .093-.026c.055 0 .081.034.081.102l-.026.136a.122.122 0 0 1-.015.062 4.612 4.612 0 0 0-.053.524l-.053.575c0 .08-.005.133-.014.16l-.013.05a.2.2 0 0 1-.028.051c-.024.051-.056.077-.103.077-.061 0-.094-.047-.094-.14 0-.065-.005-.126-.013-.185a1.163 1.163 0 0 0-.068-.224.638.638 0 0 0-.21-.262c-.122-.068-.321-.116-.595-.14a2.653 2.653 0 0 0-.345-.013l-.595-.026-.973-.013c-.054 0-.082.035-.082.103v2.745c0 .08.028.12.082.12h1.068c.266 0 .483-.007.649-.018.212 0 .353-.004.42-.012.302-.027.495-.082.581-.166l.108-.11c.035-.025.065-.039.081-.039.067 0 .102.042.102.123l-.143 1.237-.01.314a.693.693 0 0 1-.015.159c-.028.06-.064.09-.108.09-.077 0-.116-.03-.116-.09l-.042-.403c-.08-.255-.304-.4-.675-.434a2.95 2.95 0 0 0-.345-.012l-.582-.025-.988-.013c-.044 0-.067.038-.067.114v2.536c.01.377.134.627.371.745.213.125.64.185 1.28.185.221 0 .415-.009.582-.024a1.72 1.72 0 0 0 .567-.122c.266-.11.439-.385.523-.824.03-.11.077-.164.141-.164.045 0 .074.03.093.088a.62.62 0 0 1 .015.173c0 .46-.056.867-.162 1.224-.06.192-.277.288-.658.288-.89 0-1.64-.014-2.237-.037l-1.664-.026-.446.012c-.387.018-.67.027-.847.027-.153 0-.227-.04-.227-.115 0-.082.062-.123.187-.123.176 0 .322-.013.433-.037.194-.044.313-.24.36-.588.026-.21.045-.536.052-.984V42.55z" fill="#4C4C4C" fill-rule="nonzero"/></g></svg>