<svg width="25" height="25" xmlns="http://www.w3.org/2000/svg"><path d="M24.9 11.102c-.04-.35-.45-.615-.803-.615a2.774 2.774 0 0 1-2.586-1.711 2.782 2.782 0 0 1 .698-3.088.694.694 0 0 0 .076-.942 12.358 12.358 0 0 0-1.978-1.998.695.695 0 0 0-.95.076c-.744.825-2.081 1.131-3.115.7A2.774 2.774 0 0 1 14.555.813a.693.693 0 0 0-.612-.73 12.469 12.469 0 0 0-2.81-.007.695.695 0 0 0-.619.714 2.779 2.779 0 0 1-1.71 2.665c-1.02.417-2.348.113-3.091-.704a.696.696 0 0 0-.943-.08 12.438 12.438 0 0 0-2.02 1.998.695.695 0 0 0 .074.95c.87.787 1.15 2.039.699 3.116-.431 1.026-1.497 1.688-2.718 1.688a.679.679 0 0 0-.721.613c-.11.938-.111 1.894-.006 2.84.04.353.461.614.82.614 1.087-.027 2.131.646 2.57 1.712a2.777 2.777 0 0 1-.7 3.088.694.694 0 0 0-.075.941 12.38 12.38 0 0 0 1.976 2c.286.23.702.197.95-.076.747-.827 2.084-1.133 3.114-.7a2.77 2.77 0 0 1 1.69 2.71.694.694 0 0 0 .612.73 12.414 12.414 0 0 0 2.81.007.695.695 0 0 0 .618-.715 2.776 2.776 0 0 1 1.709-2.663c1.028-.42 2.35-.113 3.093.703a.698.698 0 0 0 .943.08 12.434 12.434 0 0 0 2.02-1.998.693.693 0 0 0-.075-.95 2.767 2.767 0 0 1-.7-3.115 2.796 2.796 0 0 1 2.556-1.693l.154.004a.695.695 0 0 0 .731-.612 12.5 12.5 0 0 0 .006-2.84zm-12.391 5.58a4.17 4.17 0 0 1-4.166-4.166 4.17 4.17 0 0 1 4.166-4.166 4.17 4.17 0 0 1 4.166 4.166 4.17 4.17 0 0 1-4.166 4.165z" fill="#868686"/></svg>